<svg width="510" height="510" viewBox="0 0 510 510" fill="none" xmlns="http://www.w3.org/2000/svg">
<g clip-path="url(#clip0_310_2)">
<path d="M340 425C340 378.056 378.056 340 425 340C471.944 340 510 378.056 510 425C510 471.944 471.944 510 425 510C378.056 510 340 471.944 340 425Z" fill="#FCFCFC"/>
<path d="M340 510H170C170 416.112 246.112 340 340 340V510Z" fill="#FCFCFC"/>
<path d="M170 340V510C76.1116 510 0 433.888 0 340H170Z" fill="#FCFCFC"/>
<path d="M170 342H0V340C0 246.112 76.1116 170 170 170V170L170 342Z" fill="#FCFCFC"/>
<g clip-path="url(#clip1_310_2)">
<path d="M170 340V170C263.888 170 340 246.112 340 340H170Z" fill="#FCFCFC"/>
<path d="M170 340V178C259.47 178 332 250.53 332 340H170Z" fill="#191919"/>
<path d="M170 340V186C255.052 186 324 254.948 324 340H170Z" fill="#E7DB75"/>
<path d="M170 340V194C250.634 194 316 259.366 316 340H170Z" fill="#191919"/>
<path d="M170 340V202C246.215 202 308 263.785 308 340H170Z" fill="#FCFCFC"/>
<path d="M170 340V210C241.797 210 300 268.203 300 340H170Z" fill="#191919"/>
<path d="M170 340V218C237.379 218 292 272.621 292 340H170Z" fill="#FCFCFC"/>
<path d="M170 340V226C232.96 226 284 277.04 284 340H170Z" fill="#191919"/>
<path d="M170 340V234C228.542 234 276 281.458 276 340H170Z" fill="#FCFCFC"/>
<path d="M170 340V242C224.124 242 268 285.876 268 340H170Z" fill="#191919"/>
<path d="M170 340V250C219.706 250 260 290.294 260 340H170Z" fill="#FCFCFC"/>
<path d="M170 340V258C215.287 258 252 294.713 252 340H170Z" fill="#191919"/>
<path d="M170 340V266C210.869 266 244 299.131 244 340H170Z" fill="#C80D44"/>
<path d="M170 340V274C206.451 274 236 303.549 236 340H170Z" fill="#191919"/>
<path d="M170 340V282C202.033 282 228 307.967 228 340H170Z" fill="#FCFCFC"/>
<path d="M170 340V290C197.614 290 220 312.386 220 340H170Z" fill="#191919"/>
<path d="M170 340V298C193.196 298 212 316.804 212 340H170Z" fill="#FCFCFC"/>
<path d="M170 340V306C188.778 306 204 321.222 204 340H170Z" fill="#191919"/>
<path d="M170 340V314C184.359 314 196 325.641 196 340H170Z" fill="#FCFCFC"/>
<path d="M170 340V322C179.941 322 188 330.059 188 340H170Z" fill="#191919"/>
<path d="M170 340V330C175.523 330 180 334.477 180 340H170Z" fill="#FCFCFC"/>
</g>
<path d="M340 170H510C510 263.888 433.888 340 340 340V170Z" fill="#FCFCFC"/>
<path d="M170 85C170 38.0558 208.056 0 255 0C301.944 0 340 38.0558 340 85C340 131.944 301.944 170 255 170C208.056 170 170 131.944 170 85Z" fill="#FCFCFC"/>
<g clip-path="url(#clip2_310_2)">
<path d="M510 170L340 170C340 76.1116 416.112 0 510 0V170Z" fill="#C80D44"/>
<path d="M510 170L348 170C348 80.5299 420.53 8 510 8V170Z" fill="#191919"/>
<path d="M510 170L356 170C356 84.9482 424.948 16 510 16V170Z" fill="#FCFCFC"/>
<path d="M510 170L364 170C364 89.3664 429.366 24 510 24V170Z" fill="#191919"/>
<path d="M510 170L372 170C372 93.7847 433.785 32 510 32V170Z" fill="#FCFCFC"/>
<path d="M510 170L380 170C380 98.203 438.203 40 510 40V170Z" fill="#191919"/>
<path d="M510 170L388 170C388 102.621 442.621 48 510 48V170Z" fill="#FCFCFC"/>
<path d="M510 170H396C396 107.04 447.04 56 510 56V170Z" fill="#191919"/>
<path d="M510 170H404C404 111.458 451.458 64 510 64V170Z" fill="#FCFCFC"/>
<path d="M510 170H412C412 115.876 455.876 72 510 72V170Z" fill="#191919"/>
<path d="M510 170H420C420 120.294 460.294 80 510 80V170Z" fill="#FCFCFC"/>
<path d="M510 170H428C428 124.713 464.713 88 510 88V170Z" fill="#191919"/>
<path d="M510 170H436C436 129.131 469.131 96 510 96V170Z" fill="#FCFCFC"/>
<path d="M510 170H444C444 133.549 473.549 104 510 104V170Z" fill="#191919"/>
<path d="M510 170H452C452 137.967 477.967 112 510 112V170Z" fill="#E7DB75"/>
<path d="M510 170H460C460 142.386 482.386 120 510 120V170Z" fill="#191919"/>
<path d="M510 170H468C468 146.804 486.804 128 510 128V170Z" fill="#FCFCFC"/>
<path d="M510 170H476C476 151.222 491.222 136 510 136V170Z" fill="#191919"/>
<path d="M510 170H484C484 155.641 495.641 144 510 144V170Z" fill="#C80D44"/>
<path d="M510 170H492C492 160.059 500.059 152 510 152V170Z" fill="#191919"/>
<path d="M510 170H500C500 164.477 504.477 160 510 160V170Z" fill="#FCFCFC"/>
</g>
</g>
<defs>
<clipPath id="clip0_310_2">
<rect width="510" height="510" fill="white"/>
</clipPath>
<clipPath id="clip1_310_2">
<rect width="170" height="170" fill="white" transform="matrix(0 -1 1 0 170 340)"/>
</clipPath>
<clipPath id="clip2_310_2">
<rect width="170" height="170" fill="white" transform="matrix(-1 0 0 -1 510 170)"/>
</clipPath>
</defs>
</svg>
